<svg width="227" height="104" viewBox="0 0 227 104" fill="none" xmlns="http://www.w3.org/2000/svg">
<path d="M47.552 25.072L39.616 70H28.672L31.936 51.376H14.912L11.648 70H0.704L8.64 25.072H19.584L16.448 42.736H33.472L36.608 25.072H47.552Z" fill="#E5004C"/>
<path d="M47.552 25.072L48.5368 25.2459L48.7441 24.072H47.552V25.072ZM39.616 70V71H40.4548L40.6008 70.1739L39.616 70ZM28.672 70L27.687 69.8274L27.4815 71H28.672V70ZM31.936 51.376L32.921 51.5486L33.1265 50.376H31.936V51.376ZM14.912 51.376V50.376H14.072L13.927 51.2034L14.912 51.376ZM11.648 70V71H12.488L12.633 70.1726L11.648 70ZM0.704 70L-0.280755 69.8261L-0.488119 71H0.704V70ZM8.64 25.072V24.072H7.80116L7.65525 24.8981L8.64 25.072ZM19.584 25.072L20.5686 25.2468L20.7772 24.072H19.584V25.072ZM16.448 42.736L15.4634 42.5612L15.2548 43.736H16.448V42.736ZM33.472 42.736V43.736H34.3101L34.4566 42.9108L33.472 42.736ZM36.608 25.072V24.072H35.7699L35.6234 24.8972L36.608 25.072ZM46.5672 24.8981L38.6312 69.8261L40.6008 70.1739L48.5368 25.2459L46.5672 24.8981ZM39.616 69H28.672V71H39.616V69ZM29.657 70.1726L32.921 51.5486L30.951 51.2034L27.687 69.8274L29.657 70.1726ZM31.936 50.376H14.912V52.376H31.936V50.376ZM13.927 51.2034L10.663 69.8274L12.633 70.1726L15.897 51.5486L13.927 51.2034ZM11.648 69H0.704V71H11.648V69ZM1.68876 70.1739L9.62476 25.2459L7.65525 24.8981L-0.280755 69.8261L1.68876 70.1739ZM8.64 26.072H19.584V24.072H8.64V26.072ZM18.5994 24.8972L15.4634 42.5612L17.4326 42.9108L20.5686 25.2468L18.5994 24.8972ZM16.448 43.736H33.472V41.736H16.448V43.736ZM34.4566 42.9108L37.5926 25.2468L35.6234 24.8972L32.4874 42.5612L34.4566 42.9108ZM36.608 26.072H47.552V24.072H36.608V26.072Z" fill="black"/>
<path d="M65.472 55.9909C69.6107 55.9909 73.1733 56.7376 76.16 58.2309C79.1893 59.6816 81.4933 61.7509 83.072 64.4389C84.6933 67.0842 85.504 70.1989 85.504 73.7829C85.504 75.0202 85.3547 76.5776 85.056 78.4549C84.288 82.8496 82.624 86.7536 80.064 90.1669C77.5467 93.5802 74.3253 96.2256 70.4 98.1029C66.5173 99.9802 62.2293 100.919 57.536 100.919H40.704L48.64 55.9909H65.472ZM58.496 91.5749C62.6347 91.5749 66.0693 90.4229 68.8 88.1189C71.5307 85.8149 73.2373 82.5936 73.92 78.4549C74.1333 77.1749 74.24 76.1082 74.24 75.2549C74.24 72.0976 73.28 69.6656 71.36 67.9589C69.44 66.2096 66.7093 65.3349 63.168 65.3349H57.92L53.312 91.5749H58.496Z" fill="#6EA4E3"/>
<path d="M76.16 58.2309L75.7128 59.1253L75.7204 59.1291L75.7281 59.1328L76.16 58.2309ZM83.072 64.4389L82.2097 64.9453L82.2145 64.9534L82.2194 64.9615L83.072 64.4389ZM85.056 78.4549L86.0411 78.6271L86.0424 78.6196L86.0436 78.612L85.056 78.4549ZM80.064 90.1669L79.264 89.5669L79.2592 89.5734L80.064 90.1669ZM70.4 98.1029L69.9685 97.2008L69.9647 97.2026L70.4 98.1029ZM40.704 100.919L39.7192 100.745L39.5119 101.919H40.704V100.919ZM48.64 55.9909V54.9909H47.8012L47.6552 55.817L48.64 55.9909ZM68.8 88.1189L69.4449 88.8832L69.4449 88.8832L68.8 88.1189ZM73.92 78.4549L72.9336 78.2905L72.9333 78.2922L73.92 78.4549ZM71.36 67.9589L70.6865 68.6982L70.6956 68.7063L71.36 67.9589ZM57.92 65.3349V64.3349H57.0803L56.9351 65.1619L57.92 65.3349ZM53.312 91.5749L52.3271 91.402L52.1211 92.5749H53.312V91.5749ZM65.472 56.9909C69.4918 56.9909 72.8942 57.7161 75.7128 59.1253L76.6072 57.3365C73.4524 55.7591 69.7295 54.9909 65.472 54.9909V56.9909ZM75.7281 59.1328C78.5924 60.5045 80.7398 62.4425 82.2097 64.9453L83.9343 63.9325C82.2469 61.0593 79.7863 58.8587 76.5919 57.329L75.7281 59.1328ZM82.2194 64.9615C83.7302 67.4264 84.504 70.3542 84.504 73.7829H86.504C86.504 70.0436 85.6565 66.7421 83.9246 63.9163L82.2194 64.9615ZM84.504 73.7829C84.504 74.9476 84.3627 76.448 84.0684 78.2978L86.0436 78.612C86.3466 76.7071 86.504 75.0929 86.504 73.7829H84.504ZM84.0709 78.2828C83.3288 82.5295 81.7251 86.2854 79.264 89.5669L80.864 90.7669C83.5229 87.2217 85.2472 83.1696 86.0411 78.6271L84.0709 78.2828ZM79.2592 89.5734C76.8417 92.8513 73.75 95.3923 69.9685 97.2008L70.8315 99.005C74.9007 97.0589 78.2516 94.3092 80.8688 90.7605L79.2592 89.5734ZM69.9647 97.2026C66.2294 99.0087 62.0921 99.9189 57.536 99.9189V101.919C62.3666 101.919 66.8052 100.952 70.8353 99.0032L69.9647 97.2026ZM57.536 99.9189H40.704V101.919H57.536V99.9189ZM41.6888 101.093L49.6248 56.1649L47.6552 55.817L39.7192 100.745L41.6888 101.093ZM48.64 56.9909H65.472V54.9909H48.64V56.9909ZM58.496 92.5749C62.8312 92.5749 66.5058 91.3631 69.4449 88.8832L68.1551 87.3546C65.6329 89.4828 62.4381 90.5749 58.496 90.5749V92.5749ZM69.4449 88.8832C72.3882 86.3998 74.1924 82.9481 74.9067 78.6177L72.9333 78.2922C72.2823 82.2391 70.6732 85.23 68.1551 87.3546L69.4449 88.8832ZM74.9064 78.6193C75.1246 77.3099 75.24 76.1838 75.24 75.2549H73.24C73.24 76.0327 73.142 77.04 72.9336 78.2905L74.9064 78.6193ZM75.24 75.2549C75.24 71.8828 74.2056 69.1504 72.0244 67.2115L70.6956 68.7063C72.3544 70.1808 73.24 72.3124 73.24 75.2549H75.24ZM72.0335 67.2197C69.8713 65.2497 66.867 64.3349 63.168 64.3349V66.3349C66.5517 66.3349 69.0087 67.1694 70.6865 68.6981L72.0335 67.2197ZM63.168 64.3349H57.92V66.3349H63.168V64.3349ZM56.9351 65.1619L52.3271 91.402L54.2969 91.7479L58.9049 65.5079L56.9351 65.1619ZM53.312 92.5749H58.496V90.5749H53.312V92.5749Z" fill="black"/>
<path d="M63.36 28.8555C66.24 28.8555 68.52 29.6422 70.2 31.2155C71.9067 32.7622 72.76 34.8822 72.76 37.5755C72.76 38.4555 72.6933 39.2422 72.56 39.9355C72.4533 40.5488 72.2933 41.2022 72.08 41.8955H56.6C56.5733 42.0555 56.56 42.3088 56.56 42.6555C56.56 43.8288 56.88 44.7222 57.52 45.3355C58.16 45.9488 59.0133 46.2555 60.08 46.2555C61.7867 46.2555 63.0933 45.5355 64 44.0955H71.28C70.32 46.3622 68.76 48.2155 66.6 49.6555C64.44 51.0955 62.0133 51.8155 59.32 51.8155C56.44 51.8155 54.1333 51.0155 52.4 49.4155C50.6933 47.8155 49.84 45.6422 49.84 42.8955C49.84 42.0688 49.92 41.2155 50.08 40.3355C50.48 38.0155 51.3067 35.9888 52.56 34.2555C53.8133 32.5222 55.3733 31.1888 57.24 30.2555C59.1067 29.3222 61.1467 28.8555 63.36 28.8555ZM65.84 38.4155C65.8933 38.0422 65.92 37.7888 65.92 37.6555C65.92 36.5888 65.5867 35.7755 64.92 35.2155C64.2533 34.6288 63.3733 34.3355 62.28 34.3355C61.1067 34.3355 60.0667 34.6955 59.16 35.4155C58.28 36.1088 57.64 37.1088 57.24 38.4155H65.84ZM74.7284 40.2955C75.1284 38.0022 75.9151 35.9888 77.0884 34.2555C78.2618 32.5222 79.6751 31.1888 81.3284 30.2555C82.9818 29.3222 84.7284 28.8555 86.5684 28.8555C88.1418 28.8555 89.4618 29.1755 90.5284 29.8155C91.5951 30.4555 92.3684 31.2955 92.8484 32.3355L93.4084 29.1755H100.248L96.2884 51.4955H89.4484L90.0484 48.3355C89.1951 49.3755 88.1151 50.2155 86.8084 50.8555C85.5018 51.4955 84.0618 51.8155 82.4884 51.8155C80.9151 51.8155 79.5151 51.4555 78.2884 50.7355C77.0884 50.0155 76.1551 49.0022 75.4884 47.6955C74.8218 46.3622 74.4884 44.8022 74.4884 43.0155C74.4884 42.1622 74.5684 41.2555 74.7284 40.2955ZM91.4484 40.3355C91.5284 39.8555 91.5684 39.4155 91.5684 39.0155C91.5684 37.7088 91.1818 36.6822 90.4084 35.9355C89.6618 35.1888 88.7018 34.8155 87.5284 34.8155C86.1684 34.8155 84.9284 35.3088 83.8084 36.2955C82.6884 37.2555 81.9818 38.5888 81.6884 40.2955C81.6084 40.7755 81.5684 41.2155 81.5684 41.6155C81.5684 42.9222 81.9418 43.9622 82.6884 44.7355C83.4618 45.4822 84.4218 45.8555 85.5684 45.8555C86.9284 45.8555 88.1684 45.3622 89.2884 44.3755C90.4084 43.3888 91.1284 42.0422 91.4484 40.3355ZM112.397 45.0955L120.077 29.1755H127.397L115.517 51.4955H107.037L103.077 29.1755H110.357L112.397 45.0955ZM140.196 28.8555C143.076 28.8555 145.356 29.6422 147.036 31.2155C148.743 32.7622 149.596 34.8822 149.596 37.5755C149.596 38.4555 149.529 39.2422 149.396 39.9355C149.289 40.5488 149.129 41.2022 148.916 41.8955H133.436C133.409 42.0555 133.396 42.3088 133.396 42.6555C133.396 43.8288 133.716 44.7222 134.356 45.3355C134.996 45.9488 135.849 46.2555 136.916 46.2555C138.623 46.2555 139.929 45.5355 140.836 44.0955H148.116C147.156 46.3622 145.596 48.2155 143.436 49.6555C141.276 51.0955 138.849 51.8155 136.156 51.8155C133.276 51.8155 130.969 51.0155 129.236 49.4155C127.529 47.8155 126.676 45.6422 126.676 42.8955C126.676 42.0688 126.756 41.2155 126.916 40.3355C127.316 38.0155 128.143 35.9888 129.396 34.2555C130.649 32.5222 132.209 31.1888 134.076 30.2555C135.943 29.3222 137.983 28.8555 140.196 28.8555ZM142.676 38.4155C142.729 38.0422 142.756 37.7888 142.756 37.6555C142.756 36.5888 142.423 35.7755 141.756 35.2155C141.089 34.6288 140.209 34.3355 139.116 34.3355C137.943 34.3355 136.903 34.6955 135.996 35.4155C135.116 36.1088 134.476 37.1088 134.076 38.4155H142.676ZM168.484 28.9355C170.724 28.9355 172.484 29.5622 173.764 30.8155C175.044 32.0688 175.684 33.8155 175.684 36.0555C175.684 36.8022 175.604 37.6022 175.444 38.4555L173.124 51.4955H166.324L168.484 39.3755C168.564 38.9222 168.604 38.5222 168.604 38.1755C168.604 37.0555 168.284 36.1888 167.644 35.5755C167.031 34.9622 166.164 34.6555 165.044 34.6555C163.711 34.6555 162.591 35.0688 161.684 35.8955C160.778 36.7222 160.191 37.8822 159.924 39.3755V39.1755L157.764 51.4955H150.924L154.844 29.1755H161.684L161.164 32.1755C162.044 31.1888 163.111 30.4022 164.364 29.8155C165.644 29.2288 167.018 28.9355 168.484 28.9355Z" fill="#6EA4E3"/>
<path d="M70.2 31.2155L69.5164 31.9454L69.5224 31.951L69.5285 31.9565L70.2 31.2155ZM72.56 39.9355L71.578 39.7467L71.5763 39.7554L71.5748 39.7642L72.56 39.9355ZM72.08 41.8955V42.8955H72.8186L73.0358 42.1896L72.08 41.8955ZM56.6 41.8955V40.8955H55.7529L55.6136 41.7311L56.6 41.8955ZM57.52 45.3355L58.2119 44.6135L58.2119 44.6135L57.52 45.3355ZM64 44.0955V43.0955H63.4479L63.1538 43.5627L64 44.0955ZM71.28 44.0955L72.2008 44.4855L72.7895 43.0955H71.28V44.0955ZM66.6 49.6555L66.0453 48.8234L66.0453 48.8234L66.6 49.6555ZM52.4 49.4155L51.716 50.1451L51.7217 50.1503L52.4 49.4155ZM50.08 40.3355L51.0639 40.5144L51.0655 40.5054L50.08 40.3355ZM52.56 34.2555L51.7496 33.6696L51.7496 33.6696L52.56 34.2555ZM57.24 30.2555L57.6872 31.1499L57.6872 31.1499L57.24 30.2555ZM65.84 38.4155V39.4155H66.7073L66.83 38.5569L65.84 38.4155ZM64.92 35.2155L64.2594 35.9662L64.268 35.9738L64.2768 35.9812L64.92 35.2155ZM59.16 35.4155L59.7789 36.201L59.7819 36.1986L59.16 35.4155ZM57.24 38.4155L56.2838 38.1228L55.8881 39.4155H57.24V38.4155ZM63.36 29.8555C66.0528 29.8555 68.0653 30.5864 69.5164 31.9454L70.8836 30.4856C68.9747 28.698 66.4272 27.8555 63.36 27.8555V29.8555ZM69.5285 31.9565C70.9901 33.281 71.76 35.112 71.76 37.5755H73.76C73.76 34.6523 72.8233 32.2433 70.8715 30.4745L69.5285 31.9565ZM71.76 37.5755C71.76 38.4069 71.6969 39.1285 71.578 39.7467L73.542 40.1243C73.6898 39.3558 73.76 38.5041 73.76 37.5755H71.76ZM71.5748 39.7642C71.4764 40.3299 71.3271 40.9419 71.1242 41.6014L73.0358 42.1896C73.2595 41.4624 73.4303 40.7678 73.5452 40.1068L71.5748 39.7642ZM72.08 40.8955H56.6V42.8955H72.08V40.8955ZM55.6136 41.7311C55.5725 41.9778 55.56 42.3011 55.56 42.6555H57.56C57.56 42.3165 57.5742 42.1332 57.5864 42.0599L55.6136 41.7311ZM55.56 42.6555C55.56 44.0094 55.9335 45.2002 56.8281 46.0575L58.2119 44.6135C57.8265 44.2442 57.56 43.6482 57.56 42.6555H55.56ZM56.8281 46.0575C57.6909 46.8844 58.8112 47.2555 60.08 47.2555V45.2555C59.2155 45.2555 58.6291 45.0133 58.2119 44.6135L56.8281 46.0575ZM60.08 47.2555C62.129 47.2555 63.7558 46.3601 64.8462 44.6283L63.1538 43.5627C62.4308 44.7109 61.4443 45.2555 60.08 45.2555V47.2555ZM64 45.0955H71.28V43.0955H64V45.0955ZM70.3592 43.7055C69.4797 45.7821 68.052 47.4856 66.0453 48.8234L67.1547 50.4875C69.468 48.9454 71.1603 46.9422 72.2008 44.4855L70.3592 43.7055ZM66.0453 48.8234C64.056 50.1497 61.8237 50.8155 59.32 50.8155V52.8155C62.2029 52.8155 64.824 52.0413 67.1547 50.4875L66.0453 48.8234ZM59.32 50.8155C56.633 50.8155 54.588 50.0743 53.0783 48.6807L51.7217 50.1503C53.6786 51.9567 56.247 52.8155 59.32 52.8155V50.8155ZM53.0839 48.686C51.6142 47.3081 50.84 45.4182 50.84 42.8955H48.84C48.84 45.8662 49.7725 48.3229 51.7161 50.145L53.0839 48.686ZM50.84 42.8955C50.84 42.1335 50.9137 41.3401 51.0639 40.5144L49.0961 40.1566C48.9263 41.0909 48.84 42.0042 48.84 42.8955H50.84ZM51.0655 40.5054C51.4422 38.3203 52.215 36.4392 53.3704 34.8414L51.7496 33.6696C50.3983 35.5384 49.5178 37.7107 49.0945 40.1656L51.0655 40.5054ZM53.3704 34.8414C54.5317 33.2353 55.9684 32.0094 57.6872 31.1499L56.7928 29.3611C54.7783 30.3683 53.095 31.809 51.7496 33.6696L53.3704 34.8414ZM57.6872 31.1499C59.4067 30.2902 61.2923 29.8555 63.36 29.8555V27.8555C61.0011 27.8555 58.8067 28.3541 56.7928 29.3611L57.6872 31.1499ZM66.83 38.5569C66.882 38.1923 66.92 37.8707 66.92 37.6555H64.92C64.92 37.707 64.9046 37.892 64.8501 38.2741L66.83 38.5569ZM66.92 37.6555C66.92 36.3662 66.5064 35.2421 65.5632 34.4498L64.2768 35.9812C64.6669 36.3089 64.92 36.8115 64.92 37.6555H66.92ZM65.5806 34.4648C64.6918 33.6826 63.558 33.3355 62.28 33.3355V35.3355C63.1887 35.3355 63.8149 35.5751 64.2594 35.9662L65.5806 34.4648ZM62.28 33.3355C60.8841 33.3355 59.6242 33.7699 58.5381 34.6324L59.7819 36.1986C60.5091 35.6211 61.3292 35.3355 62.28 35.3355V33.3355ZM58.5411 34.63C57.4688 35.4748 56.7301 36.6647 56.2838 38.1228L58.1962 38.7082C58.5499 37.5529 59.0912 36.7428 59.7789 36.201L58.5411 34.63ZM57.24 39.4155H65.84V37.4155H57.24V39.4155ZM74.7284 40.2955L73.7433 40.1237L73.742 40.1311L74.7284 40.2955ZM77.0884 34.2555L76.2603 33.6949L76.2603 33.6949L77.0884 34.2555ZM81.3284 30.2555L81.82 31.1263L81.82 31.1263L81.3284 30.2555ZM90.5284 29.8155L91.0429 28.958L91.0429 28.958L90.5284 29.8155ZM92.8484 32.3355L91.9405 32.7546L93.2767 35.6497L93.8331 32.51L92.8484 32.3355ZM93.4084 29.1755V28.1755H92.5701L92.4238 29.001L93.4084 29.1755ZM100.248 29.1755L101.233 29.3502L101.441 28.1755H100.248V29.1755ZM96.2884 51.4955V52.4955H97.1266L97.2731 51.6702L96.2884 51.4955ZM89.4484 51.4955L88.466 51.309L88.2407 52.4955H89.4484V51.4955ZM90.0484 48.3355L91.0309 48.522L89.2754 47.7012L90.0484 48.3355ZM86.8084 50.8555L87.2483 51.7536L87.2483 51.7536L86.8084 50.8555ZM78.2884 50.7355L77.7739 51.593L77.7822 51.5979L78.2884 50.7355ZM75.4884 47.6955L74.594 48.1427L74.5977 48.15L75.4884 47.6955ZM91.4484 40.3355L92.4313 40.5198L92.4332 40.5099L92.4348 40.4999L91.4484 40.3355ZM90.4084 35.9355L89.7013 36.6426L89.7075 36.6488L89.7138 36.6549L90.4084 35.9355ZM83.8084 36.2955L84.4593 37.0548L84.4695 37.0459L83.8084 36.2955ZM81.6884 40.2955L80.7029 40.1261L80.702 40.1311L81.6884 40.2955ZM82.6884 44.7355L81.969 45.4301L81.9812 45.4427L81.9938 45.4549L82.6884 44.7355ZM89.2884 44.3755L89.9495 45.1259L89.9495 45.1259L89.2884 44.3755ZM75.7136 40.4673C76.092 38.2975 76.8309 36.4199 77.9165 34.8161L76.2603 33.6949C74.9993 35.5578 74.1649 37.7068 73.7433 40.1237L75.7136 40.4673ZM77.9165 34.8161C79.0122 33.1975 80.3147 31.9761 81.82 31.1263L80.8368 29.3847C79.0355 30.4015 77.5113 31.8469 76.2603 33.6949L77.9165 34.8161ZM81.82 31.1263C83.3283 30.2749 84.9063 29.8555 86.5684 29.8555V27.8555C84.5506 27.8555 82.6352 28.3695 80.8368 29.3847L81.82 31.1263ZM86.5684 29.8555C88.0079 29.8555 89.1388 30.1479 90.0139 30.673L91.0429 28.958C89.7847 28.2031 88.2756 27.8555 86.5684 27.8555V29.8555ZM90.0139 30.673C90.9239 31.219 91.5519 31.9127 91.9405 32.7546L93.7564 31.9164C93.185 30.6783 92.2663 29.692 91.0429 28.958L90.0139 30.673ZM93.8331 32.51L94.3931 29.35L92.4238 29.001L91.8638 32.161L93.8331 32.51ZM93.4084 30.1755H100.248V28.1755H93.4084V30.1755ZM99.2638 29.0008L95.3038 51.3208L97.2731 51.6702L101.233 29.3502L99.2638 29.0008ZM96.2884 50.4955H89.4484V52.4955H96.2884V50.4955ZM90.4309 51.682L91.0309 48.522L89.066 48.149L88.466 51.309L90.4309 51.682ZM89.2754 47.7012C88.5202 48.6216 87.5572 49.3753 86.3686 49.9574L87.2483 51.7536C88.673 51.0557 89.8701 50.1294 90.8215 48.9698L89.2754 47.7012ZM86.3686 49.9574C85.2098 50.525 83.9219 50.8155 82.4884 50.8155V52.8155C84.2016 52.8155 85.7938 52.466 87.2483 51.7536L86.3686 49.9574ZM82.4884 50.8155C81.0737 50.8155 79.8519 50.4937 78.7946 49.8731L77.7822 51.5979C79.1783 52.4173 80.7565 52.8155 82.4884 52.8155V50.8155ZM78.8029 49.878C77.7716 49.2592 76.965 48.3892 76.3792 47.241L74.5977 48.15C75.3452 49.6151 76.4053 50.7718 77.7739 51.593L78.8029 49.878ZM76.3829 47.2483C75.7981 46.0787 75.4884 44.6774 75.4884 43.0155H73.4884C73.4884 44.9269 73.8454 46.6456 74.594 48.1427L76.3829 47.2483ZM75.4884 43.0155C75.4884 42.2243 75.5627 41.373 75.7148 40.4599L73.742 40.1311C73.5742 41.138 73.4884 42.1001 73.4884 43.0155H75.4884ZM92.4348 40.4999C92.522 39.9768 92.5684 39.4809 92.5684 39.0155H90.5684C90.5684 39.3501 90.5349 39.7342 90.462 40.1711L92.4348 40.4999ZM92.5684 39.0155C92.5684 37.5002 92.1125 36.1907 91.103 35.2161L89.7138 36.6549C90.2511 37.1736 90.5684 37.9175 90.5684 39.0155H92.5684ZM91.1155 35.2284C90.1597 34.2725 88.9347 33.8155 87.5284 33.8155V35.8155C88.4689 35.8155 89.1639 36.1051 89.7013 36.6426L91.1155 35.2284ZM87.5284 33.8155C85.9006 33.8155 84.4308 34.4145 83.1474 35.5451L84.4695 37.0459C85.4261 36.2031 86.4363 35.8155 87.5284 35.8155V33.8155ZM83.1576 35.5362C81.831 36.6734 81.0285 38.2317 80.7029 40.1261L82.674 40.4649C82.9351 38.946 83.5459 37.8376 84.4592 37.0548L83.1576 35.5362ZM80.702 40.1311C80.6149 40.6542 80.5684 41.1501 80.5684 41.6155H82.5684C82.5684 41.2809 82.602 40.8968 82.6748 40.4599L80.702 40.1311ZM80.5684 41.6155C80.5684 43.1221 81.0051 44.4317 81.969 45.4301L83.4078 44.0409C82.8785 43.4926 82.5684 42.7222 82.5684 41.6155H80.5684ZM81.9938 45.4549C82.9669 46.3944 84.1817 46.8555 85.5684 46.8555V44.8555C84.6619 44.8555 83.9567 44.57 83.383 44.0161L81.9938 45.4549ZM85.5684 46.8555C87.1963 46.8555 88.6661 46.2565 89.9495 45.1259L88.6274 43.6251C87.6708 44.4678 86.6606 44.8555 85.5684 44.8555V46.8555ZM89.9495 45.1259C91.2634 43.9684 92.0772 42.4084 92.4313 40.5198L90.4656 40.1512C90.1797 41.6759 89.5535 42.8093 88.6274 43.6251L89.9495 45.1259ZM112.397 45.0955L111.405 45.2226L111.833 48.5652L113.298 45.53L112.397 45.0955ZM120.077 29.1755V28.1755H119.449L119.176 28.741L120.077 29.1755ZM127.397 29.1755L128.28 29.6453L129.062 28.1755H127.397V29.1755ZM115.517 51.4955V52.4955H116.117L116.4 51.9653L115.517 51.4955ZM107.037 51.4955L106.052 51.6702L106.199 52.4955H107.037V51.4955ZM103.077 29.1755V28.1755H101.884L102.092 29.3502L103.077 29.1755ZM110.357 29.1755L111.349 29.0484L111.237 28.1755H110.357V29.1755ZM113.298 45.53L120.978 29.61L119.176 28.741L111.496 44.661L113.298 45.53ZM120.077 30.1755H127.397V28.1755H120.077V30.1755ZM126.514 28.7056L114.634 51.0256L116.4 51.9653L128.28 29.6453L126.514 28.7056ZM115.517 50.4955H107.037V52.4955H115.517V50.4955ZM108.021 51.3208L104.061 29.0008L102.092 29.3502L106.052 51.6702L108.021 51.3208ZM103.077 30.1755H110.357V28.1755H103.077V30.1755ZM109.365 29.3026L111.405 45.2226L113.389 44.9684L111.349 29.0484L109.365 29.3026ZM147.036 31.2155L146.352 31.9454L146.358 31.951L146.364 31.9565L147.036 31.2155ZM149.396 39.9355L148.414 39.7467L148.412 39.7554L148.411 39.7642L149.396 39.9355ZM148.916 41.8955V42.8955H149.655L149.872 42.1896L148.916 41.8955ZM133.436 41.8955V40.8955H132.589L132.45 41.7311L133.436 41.8955ZM134.356 45.3355L135.048 44.6135L135.048 44.6135L134.356 45.3355ZM140.836 44.0955V43.0955H140.284L139.99 43.5627L140.836 44.0955ZM148.116 44.0955L149.037 44.4855L149.625 43.0955H148.116V44.0955ZM143.436 49.6555L142.881 48.8234L142.881 48.8234L143.436 49.6555ZM129.236 49.4155L128.552 50.1451L128.558 50.1503L129.236 49.4155ZM126.916 40.3355L127.9 40.5144L127.901 40.5054L126.916 40.3355ZM129.396 34.2555L128.586 33.6696L128.586 33.6696L129.396 34.2555ZM134.076 30.2555L134.523 31.1499L134.523 31.1499L134.076 30.2555ZM142.676 38.4155V39.4155H143.543L143.666 38.5569L142.676 38.4155ZM141.756 35.2155L141.095 35.9662L141.104 35.9738L141.113 35.9812L141.756 35.2155ZM135.996 35.4155L136.615 36.201L136.618 36.1986L135.996 35.4155ZM134.076 38.4155L133.12 38.1228L132.724 39.4155H134.076V38.4155ZM140.196 29.8555C142.889 29.8555 144.901 30.5864 146.352 31.9454L147.719 30.4856C145.811 28.698 143.263 27.8555 140.196 27.8555V29.8555ZM146.364 31.9565C147.826 33.281 148.596 35.112 148.596 37.5755H150.596C150.596 34.6523 149.659 32.2433 147.707 30.4745L146.364 31.9565ZM148.596 37.5755C148.596 38.4069 148.533 39.1285 148.414 39.7467L150.378 40.1243C150.526 39.3558 150.596 38.5041 150.596 37.5755H148.596ZM148.411 39.7642C148.312 40.3299 148.163 40.9419 147.96 41.6014L149.872 42.1896C150.095 41.4624 150.266 40.7678 150.381 40.1068L148.411 39.7642ZM148.916 40.8955H133.436V42.8955H148.916V40.8955ZM132.45 41.7311C132.408 41.9778 132.396 42.3011 132.396 42.6555H134.396C134.396 42.3165 134.41 42.1332 134.422 42.0599L132.45 41.7311ZM132.396 42.6555C132.396 44.0094 132.769 45.2002 133.664 46.0575L135.048 44.6135C134.662 44.2442 134.396 43.6482 134.396 42.6555H132.396ZM133.664 46.0575C134.527 46.8844 135.647 47.2555 136.916 47.2555V45.2555C136.051 45.2555 135.465 45.0133 135.048 44.6135L133.664 46.0575ZM136.916 47.2555C138.965 47.2555 140.592 46.3601 141.682 44.6283L139.99 43.5627C139.267 44.7109 138.28 45.2555 136.916 45.2555V47.2555ZM140.836 45.0955H148.116V43.0955H140.836V45.0955ZM147.195 43.7055C146.316 45.7821 144.888 47.4856 142.881 48.8234L143.991 50.4875C146.304 48.9454 147.996 46.9422 149.037 44.4855L147.195 43.7055ZM142.881 48.8234C140.892 50.1497 138.66 50.8155 136.156 50.8155V52.8155C139.039 52.8155 141.66 52.0413 143.991 50.4875L142.881 48.8234ZM136.156 50.8155C133.469 50.8155 131.424 50.0743 129.914 48.6807L128.558 50.1503C130.515 51.9567 133.083 52.8155 136.156 52.8155V50.8155ZM129.92 48.686C128.45 47.3081 127.676 45.4182 127.676 42.8955H125.676C125.676 45.8662 126.608 48.3229 128.552 50.145L129.92 48.686ZM127.676 42.8955C127.676 42.1335 127.75 41.3401 127.9 40.5144L125.932 40.1566C125.762 41.0909 125.676 42.0042 125.676 42.8955H127.676ZM127.901 40.5054C128.278 38.3203 129.051 36.4392 130.206 34.8414L128.586 33.6696C127.234 35.5384 126.354 37.7107 125.93 40.1656L127.901 40.5054ZM130.206 34.8414C131.368 33.2353 132.804 32.0094 134.523 31.1499L133.629 29.3611C131.614 30.3683 129.931 31.809 128.586 33.6696L130.206 34.8414ZM134.523 31.1499C136.243 30.2902 138.128 29.8555 140.196 29.8555V27.8555C137.837 27.8555 135.643 28.3541 133.629 29.3611L134.523 31.1499ZM143.666 38.5569C143.718 38.1923 143.756 37.8707 143.756 37.6555H141.756C141.756 37.707 141.741 37.892 141.686 38.2741L143.666 38.5569ZM143.756 37.6555C143.756 36.3662 143.342 35.2421 142.399 34.4498L141.113 35.9812C141.503 36.3089 141.756 36.8115 141.756 37.6555H143.756ZM142.417 34.4648C141.528 33.6826 140.394 33.3355 139.116 33.3355V35.3355C140.025 35.3355 140.651 35.5751 141.095 35.9662L142.417 34.4648ZM139.116 33.3355C137.72 33.3355 136.46 33.7699 135.374 34.6324L136.618 36.1986C137.345 35.6211 138.165 35.3355 139.116 35.3355V33.3355ZM135.377 34.63C134.305 35.4748 133.566 36.6647 133.12 38.1228L135.032 38.7082C135.386 37.5529 135.927 36.7428 136.615 36.201L135.377 34.63ZM134.076 39.4155H142.676V37.4155H134.076V39.4155ZM173.764 30.8155L173.065 31.53L173.065 31.53L173.764 30.8155ZM175.444 38.4555L174.461 38.2712L174.46 38.2803L175.444 38.4555ZM173.124 51.4955V52.4955H173.962L174.109 51.6707L173.124 51.4955ZM166.324 51.4955L165.34 51.32L165.13 52.4955H166.324V51.4955ZM168.484 39.3755L169.469 39.551L169.469 39.5493L168.484 39.3755ZM167.644 35.5755L166.937 36.2826L166.945 36.2901L166.952 36.2975L167.644 35.5755ZM161.684 35.8955L162.358 36.6345L162.358 36.6345L161.684 35.8955ZM159.924 39.3755H158.924L160.909 39.5513L159.924 39.3755ZM159.924 39.1755H160.924L158.939 39.0028L159.924 39.1755ZM157.764 51.4955V52.4955H158.604L158.749 51.6682L157.764 51.4955ZM150.924 51.4955L149.939 51.3225L149.733 52.4955H150.924V51.4955ZM154.844 29.1755V28.1755H154.005L153.859 29.0025L154.844 29.1755ZM161.684 29.1755L162.67 29.3463L162.873 28.1755H161.684V29.1755ZM161.164 32.1755L160.179 32.0047L159.581 35.4527L161.911 32.8411L161.164 32.1755ZM164.364 29.8155L163.948 28.9064L163.94 28.9098L164.364 29.8155ZM168.484 29.9355C170.532 29.9355 172.016 30.5028 173.065 31.53L174.464 30.101C172.953 28.6215 170.917 27.9355 168.484 27.9355V29.9355ZM173.065 31.53C174.107 32.5506 174.684 34.013 174.684 36.0555H176.684C176.684 33.618 175.982 31.5871 174.464 30.101L173.065 31.53ZM174.684 36.0555C174.684 36.7313 174.612 37.4691 174.462 38.2712L176.427 38.6398C176.597 37.7352 176.684 36.873 176.684 36.0555H174.684ZM174.46 38.2803L172.14 51.3203L174.109 51.6707L176.429 38.6307L174.46 38.2803ZM173.124 50.4955H166.324V52.4955H173.124V50.4955ZM167.309 51.671L169.469 39.551L167.5 39.2L165.34 51.32L167.309 51.671ZM169.469 39.5493C169.556 39.056 169.604 38.5958 169.604 38.1755H167.604C167.604 38.4486 167.573 38.7884 167.5 39.2017L169.469 39.5493ZM169.604 38.1755C169.604 36.859 169.222 35.7023 168.336 34.8535L166.952 36.2975C167.347 36.6753 167.604 37.252 167.604 38.1755H169.604ZM168.351 34.8684C167.5 34.0173 166.349 33.6555 165.044 33.6555V35.6555C165.98 35.6555 166.562 35.9071 166.937 36.2826L168.351 34.8684ZM165.044 33.6555C163.485 33.6555 162.118 34.1467 161.011 35.1565L162.358 36.6345C163.064 35.9909 163.937 35.6555 165.044 35.6555V33.6555ZM161.011 35.1565C159.906 36.1638 159.236 37.5419 158.94 39.1997L160.909 39.5513C161.146 38.2224 161.65 37.2805 162.358 36.6345L161.011 35.1565ZM160.924 39.3755V39.1755H158.924V39.3755H160.924ZM158.939 39.0028L156.779 51.3228L158.749 51.6682L160.909 39.3482L158.939 39.0028ZM157.764 50.4955H150.924V52.4955H157.764V50.4955ZM151.909 51.6685L155.829 29.3485L153.859 29.0025L149.939 51.3225L151.909 51.6685ZM154.844 30.1755H161.684V28.1755H154.844V30.1755ZM160.699 29.0047L160.179 32.0047L162.15 32.3463L162.67 29.3463L160.699 29.0047ZM161.911 32.8411C162.696 31.9602 163.652 31.2532 164.788 30.7212L163.94 28.9098C162.57 29.5511 161.392 30.4175 160.418 31.5099L161.911 32.8411ZM164.781 30.7246C165.925 30.2003 167.155 29.9355 168.484 29.9355V27.9355C166.88 27.9355 165.364 28.2573 163.948 28.9064L164.781 30.7246Z" fill="black"/>
<path d="M112.4 76.9593L108.48 99.2793H101.64L102.16 96.2393C101.28 97.2259 100.2 98.0259 98.92 98.6393C97.6667 99.2259 96.32 99.5193 94.88 99.5193C92.64 99.5193 90.88 98.8926 89.6 97.6393C88.32 96.3593 87.68 94.5859 87.68 92.3193C87.68 91.4659 87.7467 90.6926 87.88 89.9993L90.2 76.9593H97L94.88 89.0793C94.8 89.5059 94.76 89.9193 94.76 90.3193C94.76 91.4393 95.0667 92.3059 95.68 92.9193C96.32 93.5059 97.2 93.7993 98.32 93.7993C99.6 93.7993 100.68 93.4259 101.56 92.6793C102.467 91.9059 103.067 90.8126 103.36 89.3993L105.56 76.9593H112.4ZM123.593 80.1193C124.446 79.0793 125.526 78.2393 126.833 77.5993C128.14 76.9593 129.566 76.6393 131.113 76.6393C133.513 76.6393 135.446 77.4259 136.913 78.9993C138.406 80.5459 139.153 82.6659 139.153 85.3593C139.153 86.2126 139.073 87.1193 138.913 88.0793C138.513 90.3726 137.726 92.3993 136.553 94.1593C135.38 95.8926 133.966 97.2393 132.313 98.1993C130.66 99.1326 128.913 99.5993 127.073 99.5993C125.5 99.5993 124.18 99.2926 123.113 98.6793C122.046 98.0393 121.273 97.1993 120.793 96.1593L120.233 99.2793H113.393L118.633 69.6793H125.473L123.593 80.1193ZM131.993 88.0793C132.073 87.6259 132.113 87.2126 132.113 86.8393C132.113 85.5059 131.726 84.4659 130.953 83.7193C130.206 82.9726 129.246 82.5993 128.073 82.5993C126.713 82.5993 125.473 83.0926 124.353 84.0793C123.233 85.0659 122.513 86.4126 122.193 88.1193C122.113 88.5993 122.073 89.0393 122.073 89.4393C122.073 90.7459 122.446 91.7726 123.193 92.5193C123.94 93.2659 124.9 93.6393 126.073 93.6393C127.433 93.6393 128.673 93.1459 129.793 92.1593C130.94 91.1459 131.673 89.7859 131.993 88.0793Z" fill="#E5004C"/>
<path d="M112.4 76.9593L113.385 77.1323L113.591 75.9593H112.4V76.9593ZM108.48 99.2793V100.279H109.32L109.465 99.4523L108.48 99.2793ZM101.64 99.2793L100.654 99.1107L100.454 100.279H101.64V99.2793ZM102.16 96.2393L103.146 96.4079L103.733 92.973L101.414 95.5737L102.16 96.2393ZM98.92 98.6393L99.344 99.545L99.3521 99.5411L98.92 98.6393ZM89.6 97.6393L88.8929 98.3464L88.9004 98.3538L89.6 97.6393ZM87.88 89.9993L88.8621 90.1881L88.8645 90.1744L87.88 89.9993ZM90.2 76.9593V75.9593H89.3622L89.2155 76.7841L90.2 76.9593ZM97 76.9593L97.985 77.1316L98.1901 75.9593H97V76.9593ZM94.88 89.0793L95.8629 89.2636L95.865 89.2516L94.88 89.0793ZM95.68 92.9193L94.9729 93.6264L94.9883 93.6418L95.0043 93.6564L95.68 92.9193ZM101.56 92.6793L102.207 93.4418L102.209 93.4401L101.56 92.6793ZM103.36 89.3993L104.339 89.6025L104.342 89.588L104.345 89.5734L103.36 89.3993ZM105.56 76.9593V75.9593H104.721L104.575 76.7851L105.56 76.9593ZM111.415 76.7863L107.495 99.1063L109.465 99.4523L113.385 77.1323L111.415 76.7863ZM108.48 98.2793H101.64V100.279H108.48V98.2793ZM102.626 99.4479L103.146 96.4079L101.174 96.0707L100.654 99.1107L102.626 99.4479ZM101.414 95.5737C100.628 96.4545 99.6574 97.1771 98.4879 97.7375L99.3521 99.5411C100.743 98.8748 101.932 97.9974 102.906 96.9049L101.414 95.5737ZM98.4961 97.7336C97.3808 98.2556 96.1796 98.5193 94.88 98.5193V100.519C96.4604 100.519 97.9525 100.196 99.3439 99.545L98.4961 97.7336ZM94.88 98.5193C92.8326 98.5193 91.3487 97.9519 90.2996 96.9248L88.9004 98.3538C90.4113 99.8333 92.4474 100.519 94.88 100.519V98.5193ZM90.3071 96.9322C89.2593 95.8843 88.68 94.3913 88.68 92.3193H86.68C86.68 94.7806 87.3807 96.8342 88.8929 98.3464L90.3071 96.9322ZM88.68 92.3193C88.68 91.5167 88.7428 90.8079 88.862 90.1881L86.898 89.8104C86.7505 90.5773 86.68 91.4152 86.68 92.3193H88.68ZM88.8645 90.1744L91.1845 77.1344L89.2155 76.7841L86.8955 89.8241L88.8645 90.1744ZM90.2 77.9593H97V75.9593H90.2V77.9593ZM96.015 76.787L93.895 88.907L95.865 89.2516L97.985 77.1316L96.015 76.787ZM93.8971 88.895C93.8067 89.3773 93.76 89.8525 93.76 90.3193H95.76C95.76 89.9861 95.7933 89.6346 95.8629 89.2636L93.8971 88.895ZM93.76 90.3193C93.76 91.6238 94.1218 92.7753 94.9729 93.6264L96.3871 92.2122C96.0116 91.8366 95.76 91.2548 95.76 90.3193H93.76ZM95.0043 93.6564C95.8773 94.4567 97.0247 94.7993 98.32 94.7993V92.7993C97.3753 92.7993 96.7627 92.5552 96.3557 92.1821L95.0043 93.6564ZM98.32 94.7993C99.8093 94.7993 101.126 94.3588 102.207 93.4418L100.913 91.9168C100.234 92.4931 99.3907 92.7993 98.32 92.7993V94.7993ZM102.209 93.4401C103.318 92.4942 104.011 91.1859 104.339 89.6025L102.381 89.1961C102.123 90.4393 101.615 91.3177 100.911 91.9184L102.209 93.4401ZM104.345 89.5734L106.545 77.1334L104.575 76.7851L102.375 89.2251L104.345 89.5734ZM105.56 77.9593H112.4V75.9593H105.56V77.9593ZM123.593 80.1193L122.609 79.9421L121.928 83.7256L124.366 80.7536L123.593 80.1193ZM126.833 77.5993L126.393 76.7012L126.393 76.7012L126.833 77.5993ZM136.913 78.9993L136.182 79.6812L136.188 79.6876L136.194 79.6939L136.913 78.9993ZM138.913 88.0793L139.898 88.2511L139.9 88.2437L138.913 88.0793ZM136.553 94.1593L137.381 94.7199L137.385 94.714L136.553 94.1593ZM132.313 98.1993L132.805 99.0702L132.815 99.0641L132.313 98.1993ZM123.113 98.6793L122.599 99.5368L122.607 99.5416L122.615 99.5462L123.113 98.6793ZM120.793 96.1593L121.701 95.7402L120.37 92.8562L119.809 95.9826L120.793 96.1593ZM120.233 99.2793V100.279H121.07L121.217 99.4559L120.233 99.2793ZM113.393 99.2793L112.408 99.105L112.201 100.279H113.393V99.2793ZM118.633 69.6793V68.6793H117.795L117.648 69.505L118.633 69.6793ZM125.473 69.6793L126.457 69.8565L126.669 68.6793H125.473V69.6793ZM131.993 88.0793L132.976 88.2636L132.978 88.2531L131.993 88.0793ZM130.953 83.7193L130.246 84.4264L130.252 84.4326L130.259 84.4387L130.953 83.7193ZM124.353 84.0793L125.014 84.8296L125.014 84.8296L124.353 84.0793ZM122.193 88.1193L121.21 87.935L121.208 87.9449L121.207 87.9549L122.193 88.1193ZM123.193 92.5193L123.9 91.8122L123.9 91.8122L123.193 92.5193ZM129.793 92.1593L130.454 92.9096L130.455 92.9086L129.793 92.1593ZM124.366 80.7536C125.121 79.8332 126.084 79.0795 127.273 78.4973L126.393 76.7012C124.969 77.399 123.772 78.3254 122.82 79.485L124.366 80.7536ZM127.273 78.4973C128.434 77.9286 129.709 77.6393 131.113 77.6393V75.6393C129.424 75.6393 127.845 75.99 126.393 76.7012L127.273 78.4973ZM131.113 77.6393C133.271 77.6393 134.927 78.3353 136.182 79.6812L137.645 78.3174C135.966 76.5166 133.755 75.6393 131.113 75.6393V77.6393ZM136.194 79.6939C137.464 81.0099 138.153 82.8563 138.153 85.3593H140.153C140.153 82.4756 139.349 80.082 137.633 78.3047L136.194 79.6939ZM138.153 85.3593C138.153 86.1505 138.079 87.0018 137.927 87.9149L139.9 88.2437C140.067 87.2368 140.153 86.2747 140.153 85.3593H138.153ZM137.928 87.9075C137.549 90.0778 136.81 91.9713 135.721 93.6046L137.385 94.714C138.643 92.8272 139.477 90.6675 139.898 88.2511L137.928 87.9075ZM135.725 93.5987C134.628 95.2194 133.322 96.457 131.811 97.3345L132.815 99.0641C134.611 98.0215 136.132 96.5658 137.381 94.7198L135.725 93.5987ZM131.822 97.3285C130.313 98.1799 128.735 98.5993 127.073 98.5993V100.599C129.091 100.599 131.006 100.085 132.805 99.0701L131.822 97.3285ZM127.073 98.5993C125.627 98.5993 124.49 98.3174 123.612 97.8124L122.615 99.5462C123.87 100.268 125.373 100.599 127.073 100.599V98.5993ZM123.628 97.8218C122.718 97.2758 122.09 96.5821 121.701 95.7402L119.885 96.5783C120.457 97.8164 121.375 98.8028 122.599 99.5368L123.628 97.8218ZM119.809 95.9826L119.249 99.1026L121.217 99.4559L121.777 96.3359L119.809 95.9826ZM120.233 98.2793H113.393V100.279H120.233V98.2793ZM114.378 99.4536L119.618 69.8536L117.648 69.505L112.408 99.105L114.378 99.4536ZM118.633 70.6793H125.473V68.6793H118.633V70.6793ZM124.489 69.5021L122.609 79.9421L124.577 80.2965L126.457 69.8565L124.489 69.5021ZM132.978 88.2531C133.066 87.755 133.113 87.2825 133.113 86.8393H131.113C131.113 87.1428 131.08 87.4969 131.008 87.9055L132.978 88.2531ZM133.113 86.8393C133.113 85.3041 132.661 83.9783 131.648 82.9999L130.259 84.4387C130.792 84.9536 131.113 85.7078 131.113 86.8393H133.113ZM131.66 83.0122C130.704 82.0563 129.479 81.5993 128.073 81.5993V83.5993C129.014 83.5993 129.709 83.8889 130.246 84.4264L131.66 83.0122ZM128.073 81.5993C126.445 81.5993 124.976 82.1983 123.692 83.3289L125.014 84.8296C125.971 83.9869 126.981 83.5993 128.073 83.5993V81.5993ZM123.692 83.3289C122.378 84.4864 121.564 86.0464 121.21 87.935L123.176 88.3036C123.462 86.7788 124.088 85.6455 125.014 84.8296L123.692 83.3289ZM121.207 87.9549C121.12 88.478 121.073 88.9739 121.073 89.4393H123.073C123.073 89.1047 123.107 88.7205 123.18 88.2837L121.207 87.9549ZM121.073 89.4393C121.073 90.9444 121.509 92.2497 122.486 93.2264L123.9 91.8122C123.384 91.2955 123.073 90.5475 123.073 89.4393H121.073ZM122.486 93.2264C123.442 94.1823 124.667 94.6393 126.073 94.6393V92.6393C125.133 92.6393 124.438 92.3496 123.9 91.8122L122.486 93.2264ZM126.073 94.6393C127.701 94.6393 129.171 94.0403 130.454 92.9096L129.132 91.4089C128.176 92.2516 127.165 92.6393 126.073 92.6393V94.6393ZM130.455 92.9086C131.791 91.7283 132.621 90.158 132.976 88.2636L131.01 87.895C130.725 89.4138 130.089 90.5636 129.131 91.41L130.455 92.9086Z" fill="black"/>
<path d="M157.857 88.6605L158.199 88.9834L158.542 88.6616L160.692 86.646L161.079 86.283L160.694 85.9182L156.029 81.5018L160.692 77.1304L161.081 76.7656L160.692 76.4009L158.542 74.3852L158.2 74.0646L157.858 74.3852L150.658 81.1352L150.27 81.4987L150.657 81.8636L157.857 88.6605ZM167.458 88.6616L167.8 88.9822L168.142 88.6616L175.392 81.8648L175.781 81.5L175.392 81.1352L168.192 74.3852L167.85 74.0646L167.508 74.3852L165.358 76.4009L164.969 76.7656L165.358 77.1304L170.019 81.5L165.308 85.9165L164.919 86.2812L165.308 86.646L167.458 88.6616ZM158.25 65.125H158.68L158.744 64.7003C158.891 63.7371 159.355 62.9511 160.158 62.3237C160.965 61.6929 161.905 61.375 163 61.375C164.095 61.375 165.035 61.6929 165.842 62.3237C166.645 62.9511 167.109 63.7371 167.256 64.7003L167.32 65.125H167.75H178C178.712 65.125 179.297 65.3541 179.783 65.8101C180.268 66.2649 180.5 66.7981 180.5 67.4375V95.5625C180.5 96.2019 180.268 96.7351 179.783 97.1899C179.297 97.6459 178.712 97.875 178 97.875H148C147.288 97.875 146.703 97.6459 146.217 97.1899C145.732 96.7351 145.5 96.2019 145.5 95.5625V67.4375C145.5 66.7981 145.732 66.2649 146.217 65.8101C146.703 65.3541 147.288 65.125 148 65.125H158.25ZM163 67.1406C163.598 67.1406 164.127 66.9255 164.567 66.5132C165.007 66.1007 165.25 65.5899 165.25 65C165.25 64.4101 165.007 63.8993 164.567 63.4868C164.127 63.0745 163.598 62.8594 163 62.8594C162.402 62.8594 161.873 63.0745 161.433 63.4868C160.993 63.8993 160.75 64.4101 160.75 65C160.75 65.5899 160.993 66.1007 161.433 66.5132C161.873 66.9255 162.402 67.1406 163 67.1406Z" fill="#6EA4E3" stroke="black"/>
</svg>
